{
    "asset" : {
        "generator" : "Khronos glTF Blender I/O v3.3.27",
        "version" : "2.0"
    },
    "scene" : 0,
    "scenes" : [
        {
            "name" : "Scene",
            "nodes" : [
                0
            ]
        }
    ],
    "nodes" : [
        {
            "mesh" : 0,
            "name" : "Cube.003",
            "rotation" : [
                -0.46879005432128906,
                0.5293731093406677,
                -0.46879008412361145,
                0.529373049736023
            ],
            "scale" : [
                0.01359548233449459,
                0.03727806359529495,
                0.521520733833313
            ],
            "translation" : [
                -0.375,
                0,
                0
            ]
        }
    ],
    "materials" : [
        {
            "doubleSided" : true,
            "name" : "Wood",
            "pbrMetallicRoughness" : {
                "baseColorFactor" : [
                    0.41093966364860535,
                    0.3014037311077118,
                    0.18445661664009094,
                    1
                ],
                "metallicFactor" : 0,
                "roughnessFactor" : 0.5
            }
        },
        {
            "doubleSided" : true,
            "name" : "Wood.001",
            "pbrMetallicRoughness" : {
                "baseColorFactor" : [
                    0.3185398578643799,
                    0.1865190714597702,
                    0.08136506378650665,
                    1
                ],
                "metallicFactor" : 0,
                "roughnessFactor" : 0.5
            }
        },
        {
            "doubleSided" : true,
            "name" : "Iron",
            "pbrMetallicRoughness" : {
                "baseColorFactor" : [
                    0.18077541887760162,
                    0.1887841820716858,
                    0.21403570473194122,
                    1
                ],
                "metallicFactor" : 0
            }
        }
    ],
    "meshes" : [
        {
            "name" : "Cube.004",
            "primitives" : [
                {
                    "attributes" : {
                        "POSITION" : 0,
                        "NORMAL" : 1,
                        "TEXCOORD_0" : 2
                    },
                    "indices" : 3,
                    "material" : 0
                },
                {
                    "attributes" : {
                        "POSITION" : 4,
                        "NORMAL" : 5,
                        "TEXCOORD_0" : 6
                    },
                    "indices" : 7,
                    "material" : 1
                },
                {
                    "attributes" : {
                        "POSITION" : 8,
                        "NORMAL" : 9,
                        "TEXCOORD_0" : 10
                    },
                    "indices" : 11,
                    "material" : 2
                }
            ]
        }
    ],
    "accessors" : [
        {
            "bufferView" : 0,
            "componentType" : 5126,
            "count" : 1814,
            "max" : [
                -0.3922576904296875,
                15.371295928955078,
                1.7535912990570068
            ],
            "min" : [
                -2.3922576904296875,
                0.7712950706481934,
                -0.2464086413383484
            ],
            "type" : "VEC3"
        },
        {
            "bufferView" : 1,
            "componentType" : 5126,
            "count" : 1814,
            "type" : "VEC3"
        },
        {
            "bufferView" : 2,
            "componentType" : 5126,
            "count" : 1814,
            "type" : "VEC2"
        },
        {
            "bufferView" : 3,
            "componentType" : 5123,
            "count" : 2268,
            "type" : "SCALAR"
        },
        {
            "bufferView" : 4,
            "componentType" : 5126,
            "count" : 72,
            "max" : [
                -1.9635225534439087,
                15.079021453857422,
                1.5952956676483154
            ],
            "min" : [
                -5.050906181335449,
                1.5692424774169922,
                -0.07743876427412033
            ],
            "type" : "VEC3"
        },
        {
            "bufferView" : 5,
            "componentType" : 5126,
            "count" : 72,
            "type" : "VEC3"
        },
        {
            "bufferView" : 6,
            "componentType" : 5126,
            "count" : 72,
            "type" : "VEC2"
        },
        {
            "bufferView" : 7,
            "componentType" : 5123,
            "count" : 72,
            "type" : "SCALAR"
        },
        {
            "bufferView" : 8,
            "componentType" : 5126,
            "count" : 14560,
            "max" : [
                0.9937400221824646,
                2.555875778198242,
                1.5826799869537354
            ],
            "min" : [
                -0.9937254190444946,
                -0.3624209761619568,
                -0.07423458248376846
            ],
            "type" : "VEC3"
        },
        {
            "bufferView" : 9,
            "componentType" : 5126,
            "count" : 14560,
            "type" : "VEC3"
        },
        {
            "bufferView" : 10,
            "componentType" : 5126,
            "count" : 14560,
            "type" : "VEC2"
        },
        {
            "bufferView" : 11,
            "componentType" : 5123,
            "count" : 18804,
            "type" : "SCALAR"
        }
    ],
    "bufferViews" : [
        {
            "buffer" : 0,
            "byteLength" : 21768,
            "byteOffset" : 0,
            "target" : 34962
        },
        {
            "buffer" : 0,
            "byteLength" : 21768,
            "byteOffset" : 21768,
            "target" : 34962
        },
        {
            "buffer" : 0,
            "byteLength" : 14512,
            "byteOffset" : 43536,
            "target" : 34962
        },
        {
            "buffer" : 0,
            "byteLength" : 4536,
            "byteOffset" : 58048,
            "target" : 34963
        },
        {
            "buffer" : 0,
            "byteLength" : 864,
            "byteOffset" : 62584,
            "target" : 34962
        },
        {
            "buffer" : 0,
            "byteLength" : 864,
            "byteOffset" : 63448,
            "target" : 34962
        },
        {
            "buffer" : 0,
            "byteLength" : 576,
            "byteOffset" : 64312,
            "target" : 34962
        },
        {
            "buffer" : 0,
            "byteLength" : 144,
            "byteOffset" : 64888,
            "target" : 34963
        },
        {
            "buffer" : 0,
            "byteLength" : 174720,
            "byteOffset" : 65032,
            "target" : 34962
        },
        {
            "buffer" : 0,
            "byteLength" : 174720,
            "byteOffset" : 239752,
            "target" : 34962
        },
        {
            "buffer" : 0,
            "byteLength" : 116480,
            "byteOffset" : 414472,
            "target" : 34962
        },
        {
            "buffer" : 0,
            "byteLength" : 37608,
            "byteOffset" : 530952,
            "target" : 34963
        }
    ],
    "buffers" : [
        {
            "byteLength" : 568560,
            "uri" : "data:application/octet-stream;base64,"
        }
    ]
}
